<svg xmlns="http://www.w3.org/2000/svg" width="200" height="20" viewBox="0 0 200 20">
  <path d="M10 10 C40 8, 60 13, 100 10 C140 7, 160 13, 190 10" fill="none" stroke="#5B7744" stroke-width="0.8" opacity="0.45"/>
  <ellipse cx="30" cy="7" rx="8" ry="3.5" fill="#5B7744" opacity="0.2" transform="rotate(-25,30,7)"/>
  <ellipse cx="55" cy="13" rx="7" ry="3" fill="#5B7744" opacity="0.18" transform="rotate(20,55,13)"/>
  <ellipse cx="78" cy="8" rx="7" ry="3" fill="#5B7744" opacity="0.2" transform="rotate(-15,78,8)"/>
  <ellipse cx="100" cy="12" rx="8" ry="3.5" fill="#5B7744" opacity="0.18" transform="rotate(22,100,12)"/>
  <ellipse cx="122" cy="8" rx="7" ry="3" fill="#5B7744" opacity="0.2" transform="rotate(-20,122,8)"/>
  <ellipse cx="145" cy="13" rx="8" ry="3.5" fill="#5B7744" opacity="0.18" transform="rotate(15,145,13)"/>
  <ellipse cx="170" cy="8" rx="7" ry="3" fill="#5B7744" opacity="0.2" transform="rotate(-22,170,8)"/>
  <circle cx="42" cy="11" r="2" fill="#5B7744" opacity="0.12"/>
  <circle cx="88" cy="10" r="2" fill="#5B7744" opacity="0.12"/>
  <circle cx="133" cy="11" r="2" fill="#5B7744" opacity="0.12"/>
  <circle cx="158" cy="10" r="1.8" fill="#5B7744" opacity="0.12"/>
</svg>
